<mxfile host="65bd71144e">
    <diagram id="DOxisX3I_BNlyZTwNfg0" name="Page-1">
        <mxGraphModel dx="2720" dy="1630" grid="1" gridSize="10" guides="1" tooltips="1" connect="1" arrows="1" fold="1" page="1" pageScale="1" pageWidth="827" pageHeight="1169" math="0" shadow="0">
            <root>
                <mxCell id="0"/>
                <mxCell id="1" parent="0"/>
                <mxCell id="127" style="edgeStyle=none;html=1;exitX=1;exitY=0.5;exitDx=0;exitDy=0;entryX=0.5;entryY=1;entryDx=0;entryDy=0;fontSize=11;" edge="1" parent="1" source="128" target="126">
                    <mxGeometry relative="1" as="geometry">
                        <Array as="points">
                            <mxPoint x="-760" y="1130"/>
                        </Array>
                    </mxGeometry>
                </mxCell>
                <mxCell id="7" style="edgeStyle=none;html=1;exitX=1;exitY=0.5;exitDx=0;exitDy=0;entryX=0;entryY=0.5;entryDx=0;entryDy=0;" parent="1" source="5" target="6" edge="1">
                    <mxGeometry relative="1" as="geometry"/>
                </mxCell>
                <mxCell id="5" value="&lt;ol&gt;&lt;li&gt;General Requirements&lt;/li&gt;&lt;li&gt;Functional Requirements&lt;/li&gt;&lt;li&gt;Design System (only for HLD)&lt;/li&gt;&lt;li&gt;App Overview (only for HLD)&lt;/li&gt;&lt;li&gt;Components Architecture&lt;/li&gt;&lt;li&gt;Dependency Tree (Optional)&lt;/li&gt;&lt;li&gt;Data Entities&lt;/li&gt;&lt;li&gt;Data API&lt;/li&gt;&lt;li&gt;Data Store&lt;/li&gt;&lt;li&gt;Performance&lt;/li&gt;&lt;li&gt;Optimizations&lt;/li&gt;&lt;li&gt;Accessiblity&lt;/li&gt;&lt;/ol&gt;" style="whiteSpace=wrap;html=1;aspect=fixed;align=left;" parent="1" vertex="1">
                    <mxGeometry x="-1080" y="-240" width="280" height="280" as="geometry"/>
                </mxCell>
                <mxCell id="12" style="edgeStyle=none;html=1;exitX=1;exitY=0.5;exitDx=0;exitDy=0;entryX=0;entryY=0.5;entryDx=0;entryDy=0;" edge="1" parent="1" source="6" target="11">
                    <mxGeometry relative="1" as="geometry"/>
                </mxCell>
                <mxCell id="6" value="&lt;div style=&quot;&quot;&gt;&lt;ol&gt;&lt;li&gt;Login&lt;/li&gt;&lt;li&gt;Dashboard&lt;/li&gt;&lt;li&gt;Users list&lt;/li&gt;&lt;li&gt;Chat Details&lt;/li&gt;&lt;li&gt;Search&amp;nbsp;&lt;/li&gt;&lt;li&gt;Send Message (Text, Emojis, GIFs, Images, Documents)&lt;/li&gt;&lt;li&gt;Edit Message&amp;nbsp;&lt;/li&gt;&lt;/ol&gt;&lt;/div&gt;" style="whiteSpace=wrap;html=1;aspect=fixed;align=left;" parent="1" vertex="1">
                    <mxGeometry x="-760" y="-240" width="280" height="280" as="geometry"/>
                </mxCell>
                <mxCell id="8" value="&lt;h3&gt;Requirements&lt;/h3&gt;" style="text;html=1;strokeColor=none;fillColor=none;align=center;verticalAlign=middle;whiteSpace=wrap;rounded=0;" parent="1" vertex="1">
                    <mxGeometry x="-610" y="-290" width="60" height="30" as="geometry"/>
                </mxCell>
                <mxCell id="11" value="&lt;div style=&quot;&quot;&gt;&lt;ol&gt;&lt;li&gt;Support Range of devices&lt;/li&gt;&lt;ul&gt;&lt;li&gt;&lt;span style=&quot;background-color: initial;&quot;&gt;Desktop&lt;/span&gt;&lt;/li&gt;&lt;li&gt;&lt;span style=&quot;background-color: initial;&quot;&gt;Tablet&lt;/span&gt;&lt;/li&gt;&lt;/ul&gt;&lt;li&gt;Sync Messages from Mobile to Web&lt;/li&gt;&lt;li&gt;Msg Notifications&lt;/li&gt;&lt;li&gt;Unread Count&lt;/li&gt;&lt;/ol&gt;&lt;/div&gt;" style="whiteSpace=wrap;html=1;aspect=fixed;align=left;" vertex="1" parent="1">
                    <mxGeometry x="-440" y="-240" width="280" height="280" as="geometry"/>
                </mxCell>
                <mxCell id="13" value="&lt;span style=&quot;background-color: initial;&quot;&gt;&lt;b&gt;General Requirements&lt;/b&gt;&lt;/span&gt;" style="text;html=1;strokeColor=none;fillColor=none;align=left;verticalAlign=middle;whiteSpace=wrap;rounded=0;" vertex="1" parent="1">
                    <mxGeometry x="-750" y="-230" width="210" height="30" as="geometry"/>
                </mxCell>
                <mxCell id="14" value="&lt;span style=&quot;background-color: initial;&quot;&gt;&lt;b&gt;Functional Requirements&lt;/b&gt;&lt;/span&gt;" style="text;html=1;strokeColor=none;fillColor=none;align=left;verticalAlign=middle;whiteSpace=wrap;rounded=0;" vertex="1" parent="1">
                    <mxGeometry x="-430" y="-230" width="210" height="30" as="geometry"/>
                </mxCell>
                <mxCell id="15" value="" style="rounded=0;whiteSpace=wrap;html=1;" vertex="1" parent="1">
                    <mxGeometry x="-1080" y="80" width="250" height="210" as="geometry"/>
                </mxCell>
                <mxCell id="16" value="Core Primitives" style="rounded=0;whiteSpace=wrap;html=1;fillColor=#dae8fc;strokeColor=#6c8ebf;" vertex="1" parent="1">
                    <mxGeometry x="-1060" y="130" width="100" height="40" as="geometry"/>
                </mxCell>
                <mxCell id="17" value="Typography" style="rounded=0;whiteSpace=wrap;html=1;fillColor=#d5e8d4;strokeColor=#82b366;" vertex="1" parent="1">
                    <mxGeometry x="-950" y="130" width="100" height="40" as="geometry"/>
                </mxCell>
                <mxCell id="18" value="Icon&lt;span style=&quot;white-space: pre;&quot;&gt;&#9;&lt;/span&gt;" style="rounded=0;whiteSpace=wrap;html=1;fillColor=#ffe6cc;strokeColor=#d79b00;" vertex="1" parent="1">
                    <mxGeometry x="-1060" y="180" width="100" height="40" as="geometry"/>
                </mxCell>
                <mxCell id="19" value="Components" style="rounded=0;whiteSpace=wrap;html=1;fillColor=#fff2cc;strokeColor=#d6b656;" vertex="1" parent="1">
                    <mxGeometry x="-950" y="180" width="100" height="40" as="geometry"/>
                </mxCell>
                <mxCell id="20" value="&lt;b&gt;Design System&lt;/b&gt;" style="text;html=1;strokeColor=none;fillColor=none;align=left;verticalAlign=middle;whiteSpace=wrap;rounded=0;" vertex="1" parent="1">
                    <mxGeometry x="-1060" y="90" width="130" height="30" as="geometry"/>
                </mxCell>
                <mxCell id="21" value="Grid" style="rounded=0;whiteSpace=wrap;html=1;fillColor=#e1d5e7;strokeColor=#9673a6;" vertex="1" parent="1">
                    <mxGeometry x="-1060" y="230" width="100" height="40" as="geometry"/>
                </mxCell>
                <mxCell id="22" value="" style="rounded=0;whiteSpace=wrap;html=1;" vertex="1" parent="1">
                    <mxGeometry x="-800" y="80" width="360" height="160" as="geometry"/>
                </mxCell>
                <mxCell id="23" value="&lt;b&gt;App Overview&lt;/b&gt;" style="text;html=1;strokeColor=none;fillColor=none;align=left;verticalAlign=middle;whiteSpace=wrap;rounded=0;" vertex="1" parent="1">
                    <mxGeometry x="-780" y="90" width="130" height="30" as="geometry"/>
                </mxCell>
                <mxCell id="24" value="Login Dashboard" style="rounded=0;whiteSpace=wrap;html=1;fillColor=#dae8fc;strokeColor=#6c8ebf;" vertex="1" parent="1">
                    <mxGeometry x="-780" y="130" width="100" height="40" as="geometry"/>
                </mxCell>
                <mxCell id="25" value="Main Page" style="rounded=0;whiteSpace=wrap;html=1;fillColor=#d5e8d4;strokeColor=#82b366;" vertex="1" parent="1">
                    <mxGeometry x="-670" y="130" width="100" height="40" as="geometry"/>
                </mxCell>
                <mxCell id="26" value="Profile Page" style="rounded=0;whiteSpace=wrap;html=1;fillColor=#ffe6cc;strokeColor=#d79b00;" vertex="1" parent="1">
                    <mxGeometry x="-560" y="130" width="100" height="40" as="geometry"/>
                </mxCell>
                <mxCell id="27" value="Settings" style="rounded=0;whiteSpace=wrap;html=1;fillColor=#e1d5e7;strokeColor=#9673a6;" vertex="1" parent="1">
                    <mxGeometry x="-670" y="180" width="100" height="40" as="geometry"/>
                </mxCell>
                <mxCell id="29" value="" style="rounded=0;whiteSpace=wrap;html=1;" vertex="1" parent="1">
                    <mxGeometry x="-1080" y="360" width="480" height="400" as="geometry"/>
                </mxCell>
                <mxCell id="30" value="" style="rounded=0;whiteSpace=wrap;html=1;" vertex="1" parent="1">
                    <mxGeometry x="-1070" y="370" width="150" height="30" as="geometry"/>
                </mxCell>
                <mxCell id="60" style="edgeStyle=none;html=1;entryX=1;entryY=0.192;entryDx=0;entryDy=0;entryPerimeter=0;fontSize=11;" edge="1" parent="1" source="38" target="56">
                    <mxGeometry relative="1" as="geometry"/>
                </mxCell>
                <mxCell id="38" value="Header Actions" style="text;html=1;strokeColor=#b46504;fillColor=#fad7ac;align=center;verticalAlign=middle;whiteSpace=wrap;rounded=0;" vertex="1" parent="1">
                    <mxGeometry x="-1070" y="370" width="150" height="30" as="geometry"/>
                </mxCell>
                <mxCell id="39" value="&lt;font style=&quot;font-size: 11px;&quot;&gt;Search&lt;/font&gt;" style="html=1;shadow=0;dashed=0;shape=mxgraph.bootstrap.rrect;rSize=5;strokeColor=#CED4DA;html=1;whiteSpace=wrap;fillColor=#FFFFFF;fontColor=#7D868C;align=left;spacing=15;spacingLeft=40;fontSize=14;" vertex="1" parent="1">
                    <mxGeometry x="-1070" y="410" width="150" height="20" as="geometry"/>
                </mxCell>
                <mxCell id="42" value="" style="rounded=0;whiteSpace=wrap;html=1;fontSize=11;fillColor=#b0e3e6;strokeColor=#0e8088;" vertex="1" parent="1">
                    <mxGeometry x="-1070" y="440" width="150" height="310" as="geometry"/>
                </mxCell>
                <mxCell id="43" value="" style="rounded=0;whiteSpace=wrap;html=1;fontSize=11;fillColor=#f5f5f5;fontColor=#333333;strokeColor=#666666;" vertex="1" parent="1">
                    <mxGeometry x="-910" y="370" width="300" height="380" as="geometry"/>
                </mxCell>
                <mxCell id="44" value="User" style="rounded=1;whiteSpace=wrap;html=1;fontSize=11;" vertex="1" parent="1">
                    <mxGeometry x="-1060" y="450" width="130" height="30" as="geometry"/>
                </mxCell>
                <mxCell id="45" value="User" style="rounded=1;whiteSpace=wrap;html=1;fontSize=11;" vertex="1" parent="1">
                    <mxGeometry x="-1060" y="490" width="130" height="30" as="geometry"/>
                </mxCell>
                <mxCell id="46" value="User" style="rounded=1;whiteSpace=wrap;html=1;fontSize=11;" vertex="1" parent="1">
                    <mxGeometry x="-1060" y="530" width="130" height="30" as="geometry"/>
                </mxCell>
                <mxCell id="47" value="User" style="rounded=1;whiteSpace=wrap;html=1;fontSize=11;" vertex="1" parent="1">
                    <mxGeometry x="-1060" y="569.5" width="130" height="30" as="geometry"/>
                </mxCell>
                <mxCell id="48" value="&amp;nbsp; &amp;nbsp;Send Message" style="rounded=0;whiteSpace=wrap;html=1;fontSize=11;align=left;" vertex="1" parent="1">
                    <mxGeometry x="-910" y="720" width="300" height="30" as="geometry"/>
                </mxCell>
                <mxCell id="49" value="Message1" style="text;html=1;strokeColor=#10739e;fillColor=#b1ddf0;align=center;verticalAlign=middle;whiteSpace=wrap;rounded=0;fontSize=11;" vertex="1" parent="1">
                    <mxGeometry x="-900" y="390" width="60" height="30" as="geometry"/>
                </mxCell>
                <mxCell id="62" style="edgeStyle=none;html=1;entryX=0;entryY=0.5;entryDx=0;entryDy=0;fontSize=11;" edge="1" parent="1" source="50" target="61">
                    <mxGeometry relative="1" as="geometry"/>
                </mxCell>
                <mxCell id="50" value="Message1" style="text;html=1;strokeColor=#b46504;fillColor=#fad7ac;align=center;verticalAlign=middle;whiteSpace=wrap;rounded=0;fontSize=11;" vertex="1" parent="1">
                    <mxGeometry x="-680" y="420" width="60" height="30" as="geometry"/>
                </mxCell>
                <mxCell id="51" value="Message1" style="text;html=1;strokeColor=#b46504;fillColor=#fad7ac;align=center;verticalAlign=middle;whiteSpace=wrap;rounded=0;fontSize=11;" vertex="1" parent="1">
                    <mxGeometry x="-680" y="460" width="60" height="30" as="geometry"/>
                </mxCell>
                <mxCell id="52" value="Message1" style="text;html=1;strokeColor=#23445d;fillColor=#bac8d3;align=center;verticalAlign=middle;whiteSpace=wrap;rounded=0;fontSize=11;" vertex="1" parent="1">
                    <mxGeometry x="-900" y="500" width="60" height="30" as="geometry"/>
                </mxCell>
                <mxCell id="53" value="Message1" style="text;html=1;strokeColor=#b46504;fillColor=#fad7ac;align=center;verticalAlign=middle;whiteSpace=wrap;rounded=0;fontSize=11;" vertex="1" parent="1">
                    <mxGeometry x="-680" y="530" width="60" height="30" as="geometry"/>
                </mxCell>
                <mxCell id="55" value="&lt;h3&gt;Components Architecture&lt;/h3&gt;" style="text;html=1;strokeColor=none;fillColor=none;align=center;verticalAlign=middle;whiteSpace=wrap;rounded=0;" vertex="1" parent="1">
                    <mxGeometry x="-1080" y="320" width="210" height="30" as="geometry"/>
                </mxCell>
                <mxCell id="56" value="" style="rounded=0;whiteSpace=wrap;html=1;fontSize=11;fillColor=#e1d5e7;strokeColor=#9673a6;" vertex="1" parent="1">
                    <mxGeometry x="-1310" y="360" width="120" height="130" as="geometry"/>
                </mxCell>
                <mxCell id="57" value="New Group" style="rounded=0;whiteSpace=wrap;html=1;fontSize=11;fillColor=#dae8fc;strokeColor=#6c8ebf;" vertex="1" parent="1">
                    <mxGeometry x="-1300" y="370" width="100" height="30" as="geometry"/>
                </mxCell>
                <mxCell id="58" value="Settings" style="rounded=0;whiteSpace=wrap;html=1;fontSize=11;fillColor=#d5e8d4;strokeColor=#82b366;" vertex="1" parent="1">
                    <mxGeometry x="-1300" y="410" width="100" height="30" as="geometry"/>
                </mxCell>
                <mxCell id="59" value="Logout" style="rounded=0;whiteSpace=wrap;html=1;fontSize=11;fillColor=#fff2cc;strokeColor=#d6b656;" vertex="1" parent="1">
                    <mxGeometry x="-1300" y="450" width="100" height="30" as="geometry"/>
                </mxCell>
                <mxCell id="61" value="Message Actions" style="rounded=0;whiteSpace=wrap;html=1;fontSize=11;fillColor=#f8cecc;strokeColor=#b85450;" vertex="1" parent="1">
                    <mxGeometry x="-570" y="410" width="110" height="50" as="geometry"/>
                </mxCell>
                <mxCell id="82" style="edgeStyle=none;html=1;exitX=0.25;exitY=1;exitDx=0;exitDy=0;fontSize=11;" edge="1" parent="1" source="74" target="75">
                    <mxGeometry relative="1" as="geometry"/>
                </mxCell>
                <mxCell id="84" style="edgeStyle=none;html=1;exitX=0.75;exitY=1;exitDx=0;exitDy=0;entryX=0.25;entryY=0;entryDx=0;entryDy=0;fontSize=11;" edge="1" parent="1" source="74" target="76">
                    <mxGeometry relative="1" as="geometry"/>
                </mxCell>
                <mxCell id="74" value="Main Page" style="rounded=0;whiteSpace=wrap;html=1;fillColor=#d5e8d4;strokeColor=#82b366;" vertex="1" parent="1">
                    <mxGeometry x="-280" y="360" width="100" height="40" as="geometry"/>
                </mxCell>
                <mxCell id="85" style="edgeStyle=none;html=1;exitX=0.25;exitY=1;exitDx=0;exitDy=0;entryX=0.75;entryY=0;entryDx=0;entryDy=0;fontSize=11;" edge="1" parent="1" source="75" target="77">
                    <mxGeometry relative="1" as="geometry"/>
                </mxCell>
                <mxCell id="87" style="edgeStyle=none;html=1;exitX=0.75;exitY=1;exitDx=0;exitDy=0;entryX=0.15;entryY=0;entryDx=0;entryDy=0;entryPerimeter=0;fontSize=11;" edge="1" parent="1" source="75" target="78">
                    <mxGeometry relative="1" as="geometry"/>
                </mxCell>
                <mxCell id="75" value="Aside" style="rounded=0;whiteSpace=wrap;html=1;fillColor=#dae8fc;strokeColor=#6c8ebf;" vertex="1" parent="1">
                    <mxGeometry x="-340" y="440" width="100" height="40" as="geometry"/>
                </mxCell>
                <mxCell id="90" style="edgeStyle=none;html=1;exitX=0.75;exitY=1;exitDx=0;exitDy=0;entryX=0.35;entryY=0;entryDx=0;entryDy=0;entryPerimeter=0;fontSize=11;" edge="1" parent="1" source="76" target="89">
                    <mxGeometry relative="1" as="geometry"/>
                </mxCell>
                <mxCell id="100" style="edgeStyle=none;html=1;exitX=1;exitY=0.5;exitDx=0;exitDy=0;fontSize=11;" edge="1" parent="1" source="76" target="97">
                    <mxGeometry relative="1" as="geometry"/>
                </mxCell>
                <mxCell id="76" value="PageContent" style="rounded=0;whiteSpace=wrap;html=1;fillColor=#dae8fc;strokeColor=#6c8ebf;" vertex="1" parent="1">
                    <mxGeometry x="-200" y="440" width="100" height="40" as="geometry"/>
                </mxCell>
                <mxCell id="106" style="edgeStyle=none;html=1;exitX=0.5;exitY=1;exitDx=0;exitDy=0;entryX=0.5;entryY=0;entryDx=0;entryDy=0;fontSize=11;" edge="1" parent="1" source="77" target="105">
                    <mxGeometry relative="1" as="geometry"/>
                </mxCell>
                <mxCell id="77" value="Header" style="rounded=0;whiteSpace=wrap;html=1;fillColor=#ffe6cc;strokeColor=#d79b00;" vertex="1" parent="1">
                    <mxGeometry x="-390" y="520" width="100" height="40" as="geometry"/>
                </mxCell>
                <mxCell id="95" style="edgeStyle=none;html=1;exitX=0.5;exitY=1;exitDx=0;exitDy=0;entryX=0.5;entryY=0;entryDx=0;entryDy=0;fontSize=11;" edge="1" parent="1" source="78" target="91">
                    <mxGeometry relative="1" as="geometry"/>
                </mxCell>
                <mxCell id="78" value="UsersList" style="rounded=0;whiteSpace=wrap;html=1;fillColor=#f8cecc;strokeColor=#b85450;" vertex="1" parent="1">
                    <mxGeometry x="-280" y="520" width="100" height="40" as="geometry"/>
                </mxCell>
                <mxCell id="104" style="edgeStyle=none;html=1;exitX=1;exitY=0.5;exitDx=0;exitDy=0;entryX=0;entryY=0.5;entryDx=0;entryDy=0;fontSize=11;" edge="1" parent="1" source="89" target="101">
                    <mxGeometry relative="1" as="geometry"/>
                </mxCell>
                <mxCell id="89" value="Chat History" style="rounded=0;whiteSpace=wrap;html=1;fillColor=#e1d5e7;strokeColor=#9673a6;" vertex="1" parent="1">
                    <mxGeometry x="-160" y="520" width="100" height="40" as="geometry"/>
                </mxCell>
                <mxCell id="96" style="edgeStyle=none;html=1;exitX=1;exitY=0.5;exitDx=0;exitDy=0;entryX=0.5;entryY=1;entryDx=0;entryDy=0;fontSize=11;" edge="1" parent="1" source="91" target="89">
                    <mxGeometry relative="1" as="geometry">
                        <Array as="points">
                            <mxPoint x="-110" y="620"/>
                        </Array>
                    </mxGeometry>
                </mxCell>
                <mxCell id="91" value="User" style="rounded=0;whiteSpace=wrap;html=1;fillColor=#f8cecc;strokeColor=#b85450;" vertex="1" parent="1">
                    <mxGeometry x="-280" y="600" width="100" height="40" as="geometry"/>
                </mxCell>
                <mxCell id="97" value="Loading" style="rounded=0;whiteSpace=wrap;html=1;fillColor=#bac8d3;strokeColor=#23445d;" vertex="1" parent="1">
                    <mxGeometry x="-50" y="440" width="100" height="40" as="geometry"/>
                </mxCell>
                <mxCell id="99" value="&lt;h3&gt;Design Graph&lt;/h3&gt;" style="text;html=1;strokeColor=none;fillColor=none;align=center;verticalAlign=middle;whiteSpace=wrap;rounded=0;" vertex="1" parent="1">
                    <mxGeometry x="-420" y="320" width="210" height="30" as="geometry"/>
                </mxCell>
                <mxCell id="101" value="Message Actions" style="rounded=0;whiteSpace=wrap;html=1;fillColor=#b1ddf0;strokeColor=#10739e;" vertex="1" parent="1">
                    <mxGeometry x="-40" y="520" width="100" height="40" as="geometry"/>
                </mxCell>
                <mxCell id="105" value="Header Actions" style="rounded=0;whiteSpace=wrap;html=1;fillColor=#b0e3e6;strokeColor=#0e8088;" vertex="1" parent="1">
                    <mxGeometry x="-390" y="599.5" width="100" height="40" as="geometry"/>
                </mxCell>
                <mxCell id="108" value="&lt;font style=&quot;font-size: 16px;&quot;&gt;type User = {&lt;br&gt;&lt;span style=&quot;white-space: pre;&quot;&gt;&#9;&lt;/span&gt;id: number;&lt;br&gt;&lt;span style=&quot;white-space: pre;&quot;&gt;&#9;&lt;/span&gt;name: string;&lt;br&gt;&lt;span style=&quot;white-space: pre;&quot;&gt;&#9;&lt;/span&gt;date: number;&lt;br&gt;&lt;span style=&quot;white-space: pre;&quot;&gt;&#9;&lt;/span&gt;profile: Profile&lt;br&gt;}&lt;br&gt;&lt;br&gt;type Profile = {&lt;br&gt;&lt;span style=&quot;white-space: pre;&quot;&gt;&#9;&lt;/span&gt;about: string;&lt;br&gt;&lt;span style=&quot;white-space: pre;&quot;&gt;&#9;&lt;/span&gt;settings: {};&lt;br&gt;&lt;span style=&quot;white-space: pre;&quot;&gt;&#9;&lt;/span&gt;image: string;&lt;br&gt;&lt;span style=&quot;white-space: pre;&quot;&gt;&#9;&lt;/span&gt;phone: string;&lt;br&gt;}&lt;br&gt;&lt;br&gt;type Message = {&lt;br&gt;&lt;span style=&quot;white-space: pre;&quot;&gt;&#9;&lt;/span&gt;id: number;&lt;br&gt;&lt;span style=&quot;white-space: pre;&quot;&gt;&#9;&lt;/span&gt;text: string;&lt;br&gt;&lt;span style=&quot;white-space: pre;&quot;&gt;&#9;&lt;/span&gt;date: number;&lt;br&gt;&lt;span style=&quot;white-space: pre;&quot;&gt;&#9;&lt;/span&gt;actions: {};&lt;br&gt;&lt;span style=&quot;white-space: pre;&quot;&gt;&#9;&lt;/span&gt;from: User;&lt;br&gt;}&lt;br&gt;&lt;br&gt;type chatHistory = Array&amp;lt;Message&amp;gt;;&lt;br&gt;&lt;/font&gt;" style="text;html=1;strokeColor=none;fillColor=none;align=left;verticalAlign=middle;whiteSpace=wrap;rounded=0;fontSize=11;" vertex="1" parent="1">
                    <mxGeometry x="100" y="280" width="335" height="500" as="geometry"/>
                </mxCell>
                <mxCell id="110" value="&lt;ol&gt;&lt;li&gt;&lt;font style=&quot;font-size: 14px;&quot;&gt;getUsers(api_key, size)&lt;/font&gt;&lt;/li&gt;&lt;li&gt;&lt;font style=&quot;font-size: 14px;&quot;&gt;getChatDetails(api_key, user_id, size, page)&lt;/font&gt;&lt;/li&gt;&lt;li&gt;&lt;span style=&quot;font-size: 14px;&quot;&gt;postMessage(api_key, userId, message_id, message_payload);&lt;/span&gt;&lt;/li&gt;&lt;li&gt;&lt;span style=&quot;font-size: 14px;&quot;&gt;updateSettings(api_key, user_id);&lt;/span&gt;&lt;/li&gt;&lt;/ol&gt;" style="text;html=1;strokeColor=none;fillColor=none;align=left;verticalAlign=middle;whiteSpace=wrap;rounded=0;fontSize=11;" vertex="1" parent="1">
                    <mxGeometry x="360" y="320" width="350" height="160" as="geometry"/>
                </mxCell>
                <mxCell id="111" value="&lt;h3&gt;Data API&lt;/h3&gt;" style="text;html=1;strokeColor=none;fillColor=none;align=center;verticalAlign=middle;whiteSpace=wrap;rounded=0;" vertex="1" parent="1">
                    <mxGeometry x="330" y="300" width="210" height="30" as="geometry"/>
                </mxCell>
                <mxCell id="112" style="edgeStyle=none;html=1;exitX=0.25;exitY=1;exitDx=0;exitDy=0;fontSize=11;" edge="1" parent="1" source="114" target="117">
                    <mxGeometry relative="1" as="geometry"/>
                </mxCell>
                <mxCell id="113" style="edgeStyle=none;html=1;exitX=0.75;exitY=1;exitDx=0;exitDy=0;entryX=0.25;entryY=0;entryDx=0;entryDy=0;fontSize=11;" edge="1" parent="1" source="114" target="120">
                    <mxGeometry relative="1" as="geometry"/>
                </mxCell>
                <mxCell id="134" style="edgeStyle=none;html=1;exitX=1;exitY=0.5;exitDx=0;exitDy=0;entryX=0.5;entryY=0;entryDx=0;entryDy=0;entryPerimeter=0;fontSize=14;" edge="1" parent="1" source="114" target="133">
                    <mxGeometry relative="1" as="geometry">
                        <Array as="points">
                            <mxPoint x="-580" y="890"/>
                        </Array>
                    </mxGeometry>
                </mxCell>
                <mxCell id="135" value="&lt;font style=&quot;font-size: 11px;&quot;&gt;Fetching point:&amp;nbsp; getUsers&lt;/font&gt;" style="edgeLabel;html=1;align=center;verticalAlign=middle;resizable=0;points=[];fontSize=14;" vertex="1" connectable="0" parent="134">
                    <mxGeometry x="-0.6601" y="-1" relative="1" as="geometry">
                        <mxPoint x="63" y="-11" as="offset"/>
                    </mxGeometry>
                </mxCell>
                <mxCell id="114" value="Main Page" style="rounded=0;whiteSpace=wrap;html=1;fillColor=#d5e8d4;strokeColor=#82b366;" vertex="1" parent="1">
                    <mxGeometry x="-930" y="870" width="100" height="40" as="geometry"/>
                </mxCell>
                <mxCell id="115" style="edgeStyle=none;html=1;exitX=0.25;exitY=1;exitDx=0;exitDy=0;entryX=0.75;entryY=0;entryDx=0;entryDy=0;fontSize=11;" edge="1" parent="1" source="117" target="122">
                    <mxGeometry relative="1" as="geometry"/>
                </mxCell>
                <mxCell id="116" style="edgeStyle=none;html=1;exitX=0.75;exitY=1;exitDx=0;exitDy=0;entryX=0.15;entryY=0;entryDx=0;entryDy=0;entryPerimeter=0;fontSize=11;" edge="1" parent="1" source="117" target="124">
                    <mxGeometry relative="1" as="geometry"/>
                </mxCell>
                <mxCell id="117" value="Aside" style="rounded=0;whiteSpace=wrap;html=1;fillColor=#dae8fc;strokeColor=#6c8ebf;" vertex="1" parent="1">
                    <mxGeometry x="-990" y="950" width="100" height="40" as="geometry"/>
                </mxCell>
                <mxCell id="118" style="edgeStyle=none;html=1;exitX=0.75;exitY=1;exitDx=0;exitDy=0;entryX=0.35;entryY=0;entryDx=0;entryDy=0;entryPerimeter=0;fontSize=11;" edge="1" parent="1" source="120" target="126">
                    <mxGeometry relative="1" as="geometry"/>
                </mxCell>
                <mxCell id="120" value="PageContent" style="rounded=0;whiteSpace=wrap;html=1;fillColor=#dae8fc;strokeColor=#6c8ebf;" vertex="1" parent="1">
                    <mxGeometry x="-850" y="950" width="100" height="40" as="geometry"/>
                </mxCell>
                <mxCell id="121" style="edgeStyle=none;html=1;exitX=0.5;exitY=1;exitDx=0;exitDy=0;entryX=0.5;entryY=0;entryDx=0;entryDy=0;fontSize=11;" edge="1" parent="1" source="122" target="132">
                    <mxGeometry relative="1" as="geometry"/>
                </mxCell>
                <mxCell id="122" value="Header" style="rounded=0;whiteSpace=wrap;html=1;fillColor=#ffe6cc;strokeColor=#d79b00;" vertex="1" parent="1">
                    <mxGeometry x="-1040" y="1030" width="100" height="40" as="geometry"/>
                </mxCell>
                <mxCell id="123" style="edgeStyle=none;html=1;exitX=0.5;exitY=1;exitDx=0;exitDy=0;entryX=0.5;entryY=0;entryDx=0;entryDy=0;fontSize=11;" edge="1" parent="1" source="124" target="128">
                    <mxGeometry relative="1" as="geometry"/>
                </mxCell>
                <mxCell id="124" value="UsersList" style="rounded=0;whiteSpace=wrap;html=1;fillColor=#f8cecc;strokeColor=#b85450;" vertex="1" parent="1">
                    <mxGeometry x="-930" y="1030" width="100" height="40" as="geometry"/>
                </mxCell>
                <mxCell id="126" value="Chat History" style="rounded=0;whiteSpace=wrap;html=1;fillColor=#e1d5e7;strokeColor=#9673a6;" vertex="1" parent="1">
                    <mxGeometry x="-810" y="1030" width="100" height="40" as="geometry"/>
                </mxCell>
                <mxCell id="128" value="User" style="rounded=0;whiteSpace=wrap;html=1;fillColor=#f8cecc;strokeColor=#b85450;" vertex="1" parent="1">
                    <mxGeometry x="-930" y="1110" width="100" height="40" as="geometry"/>
                </mxCell>
                <mxCell id="130" value="&lt;h3&gt;Data Store&lt;/h3&gt;" style="text;html=1;strokeColor=none;fillColor=none;align=center;verticalAlign=middle;whiteSpace=wrap;rounded=0;" vertex="1" parent="1">
                    <mxGeometry x="-1070" y="830" width="210" height="30" as="geometry"/>
                </mxCell>
                <mxCell id="132" value="Header Actions" style="rounded=0;whiteSpace=wrap;html=1;fillColor=#b0e3e6;strokeColor=#0e8088;" vertex="1" parent="1">
                    <mxGeometry x="-1040" y="1109.5" width="100" height="40" as="geometry"/>
                </mxCell>
                <mxCell id="138" style="edgeStyle=none;html=1;exitX=0;exitY=0;exitDx=0;exitDy=37.5;exitPerimeter=0;fontSize=11;" edge="1" parent="1" source="133" target="126">
                    <mxGeometry relative="1" as="geometry"/>
                </mxCell>
                <mxCell id="133" value="store" style="shape=cylinder3;whiteSpace=wrap;html=1;boundedLbl=1;backgroundOutline=1;size=15;fontSize=14;fillColor=#eeeeee;strokeColor=#36393d;" vertex="1" parent="1">
                    <mxGeometry x="-625" y="1010" width="90" height="120" as="geometry"/>
                </mxCell>
                <mxCell id="143" value="usersStore: { userId: User}&lt;br&gt;chatStore: { userId: Chat}" style="html=1;align=left;verticalAlign=top;rounded=1;absoluteArcSize=1;arcSize=10;dashed=0;fontSize=11;" vertex="1" parent="1">
                    <mxGeometry x="-520" y="1045" width="170" height="50" as="geometry"/>
                </mxCell>
                <mxCell id="147" value="" style="endArrow=classic;startArrow=classic;html=1;strokeColor=default;fontSize=11;" edge="1" parent="1">
                    <mxGeometry width="50" height="50" relative="1" as="geometry">
                        <mxPoint x="-850" y="1070" as="sourcePoint"/>
                        <mxPoint x="-625" y="1095" as="targetPoint"/>
                        <Array as="points">
                            <mxPoint x="-850" y="1095"/>
                        </Array>
                    </mxGeometry>
                </mxCell>
                <mxCell id="148" value="&lt;font style=&quot;font-size: 11px;&quot;&gt;Fetching point:&amp;nbsp; getChat&lt;br&gt;&lt;/font&gt;" style="edgeLabel;html=1;align=center;verticalAlign=middle;resizable=0;points=[];fontSize=14;" vertex="1" connectable="0" parent="1">
                    <mxGeometry x="-740.0028571428569" y="1105.5" as="geometry"/>
                </mxCell>
                <mxCell id="149" value="&lt;h3&gt;Load Chat Providers&lt;/h3&gt;" style="text;html=1;strokeColor=none;fillColor=none;align=center;verticalAlign=middle;whiteSpace=wrap;rounded=0;" vertex="1" parent="1">
                    <mxGeometry x="-255" y="810" width="210" height="30" as="geometry"/>
                </mxCell>
                <mxCell id="150" value="Use Facade pattern to load the chat provider." style="text;html=1;align=center;verticalAlign=middle;resizable=0;points=[];autosize=1;strokeColor=none;fillColor=none;fontSize=11;" vertex="1" parent="1">
                    <mxGeometry x="-210" y="860" width="240" height="30" as="geometry"/>
                </mxCell>
                <mxCell id="164" style="edgeStyle=orthogonalEdgeStyle;html=1;exitX=0;exitY=0.5;exitDx=0;exitDy=0;strokeColor=default;fontSize=11;" edge="1" parent="1" source="160" target="161">
                    <mxGeometry relative="1" as="geometry"/>
                </mxCell>
                <mxCell id="165" style="edgeStyle=orthogonalEdgeStyle;html=1;exitX=1;exitY=0.5;exitDx=0;exitDy=0;strokeColor=default;fontSize=11;" edge="1" parent="1" source="160" target="163">
                    <mxGeometry relative="1" as="geometry"/>
                </mxCell>
                <mxCell id="166" style="edgeStyle=orthogonalEdgeStyle;html=1;exitX=0.5;exitY=1;exitDx=0;exitDy=0;strokeColor=default;fontSize=11;" edge="1" parent="1" source="160" target="162">
                    <mxGeometry relative="1" as="geometry"/>
                </mxCell>
                <mxCell id="160" value="ChatFacde" style="rounded=0;whiteSpace=wrap;html=1;fontSize=11;fillColor=#ffcc99;strokeColor=#36393d;" vertex="1" parent="1">
                    <mxGeometry x="-110" y="920" width="120" height="40" as="geometry"/>
                </mxCell>
                <mxCell id="161" value="Provider1" style="rounded=0;whiteSpace=wrap;html=1;fontSize=11;fillColor=#eeeeee;strokeColor=#36393d;" vertex="1" parent="1">
                    <mxGeometry x="-250" y="1000" width="120" height="40" as="geometry"/>
                </mxCell>
                <mxCell id="162" value="Provider2" style="rounded=0;whiteSpace=wrap;html=1;fontSize=11;fillColor=#cce5ff;strokeColor=#36393d;" vertex="1" parent="1">
                    <mxGeometry x="-110" y="1000" width="120" height="40" as="geometry"/>
                </mxCell>
                <mxCell id="163" value="Provider3" style="rounded=0;whiteSpace=wrap;html=1;fontSize=11;fillColor=#ffcccc;strokeColor=#36393d;" vertex="1" parent="1">
                    <mxGeometry x="30" y="1000" width="120" height="40" as="geometry"/>
                </mxCell>
                <mxCell id="171" value="Network" style="rounded=0;whiteSpace=wrap;html=1;fontSize=11;fillColor=#eeeeee;strokeColor=#36393d;" vertex="1" parent="1">
                    <mxGeometry x="-1110" y="1410" width="120" height="40" as="geometry"/>
                </mxCell>
                <mxCell id="172" value="Rendering" style="rounded=0;whiteSpace=wrap;html=1;fontSize=11;fillColor=#cce5ff;strokeColor=#36393d;" vertex="1" parent="1">
                    <mxGeometry x="-970" y="1410" width="120" height="40" as="geometry"/>
                </mxCell>
                <mxCell id="173" value="Javascript" style="rounded=0;whiteSpace=wrap;html=1;fontSize=11;fillColor=#ffcccc;strokeColor=#36393d;" vertex="1" parent="1">
                    <mxGeometry x="-830" y="1410" width="120" height="40" as="geometry"/>
                </mxCell>
            </root>
        </mxGraphModel>
    </diagram>
</mxfile>